<mxfile host="app.diagrams.net" modified="2023-08-18T14:50:50.185Z" agent="Mozilla/5.0 (Macintosh; Intel Mac OS X 10_15_7) AppleWebKit/537.36 (KHTML, like Gecko) Chrome/114.0.0.0 Safari/537.36" etag="140taiyljyrxIcHl4dbU" version="21.6.5" type="github">
  <diagram id="C5RBs43oDa-KdzZeNtuy" name="Page-1">
    <mxGraphModel dx="2620" dy="893" grid="1" gridSize="10" guides="1" tooltips="1" connect="1" arrows="1" fold="1" page="1" pageScale="1" pageWidth="827" pageHeight="1169" math="0" shadow="0">
      <root>
        <mxCell id="WIyWlLk6GJQsqaUBKTNV-0" />
        <mxCell id="WIyWlLk6GJQsqaUBKTNV-1" parent="WIyWlLk6GJQsqaUBKTNV-0" />
        <mxCell id="zkfFHV4jXpPFQw0GAbJ--0" value="Hayvanlar" style="swimlane;fontStyle=2;align=center;verticalAlign=top;childLayout=stackLayout;horizontal=1;startSize=26;horizontalStack=0;resizeParent=1;resizeLast=0;collapsible=1;marginBottom=0;rounded=0;shadow=0;strokeWidth=1;" parent="WIyWlLk6GJQsqaUBKTNV-1" vertex="1">
          <mxGeometry x="350" y="60" width="160" height="180" as="geometry">
            <mxRectangle x="230" y="140" width="160" height="26" as="alternateBounds" />
          </mxGeometry>
        </mxCell>
        <mxCell id="zkfFHV4jXpPFQw0GAbJ--1" value="String Name   " style="text;align=left;verticalAlign=top;spacingLeft=4;spacingRight=4;overflow=hidden;rotatable=0;points=[[0,0.5],[1,0.5]];portConstraint=eastwest;" parent="zkfFHV4jXpPFQw0GAbJ--0" vertex="1">
          <mxGeometry y="26" width="160" height="26" as="geometry" />
        </mxCell>
        <mxCell id="zkfFHV4jXpPFQw0GAbJ--2" value="Double heavy  " style="text;align=left;verticalAlign=top;spacingLeft=4;spacingRight=4;overflow=hidden;rotatable=0;points=[[0,0.5],[1,0.5]];portConstraint=eastwest;rounded=0;shadow=0;html=0;" parent="zkfFHV4jXpPFQw0GAbJ--0" vertex="1">
          <mxGeometry y="52" width="160" height="26" as="geometry" />
        </mxCell>
        <mxCell id="zkfFHV4jXpPFQw0GAbJ--3" value="int age" style="text;align=left;verticalAlign=top;spacingLeft=4;spacingRight=4;overflow=hidden;rotatable=0;points=[[0,0.5],[1,0.5]];portConstraint=eastwest;rounded=0;shadow=0;html=0;" parent="zkfFHV4jXpPFQw0GAbJ--0" vertex="1">
          <mxGeometry y="78" width="160" height="26" as="geometry" />
        </mxCell>
        <mxCell id="zkfFHV4jXpPFQw0GAbJ--4" value="" style="line;html=1;strokeWidth=1;align=left;verticalAlign=middle;spacingTop=-1;spacingLeft=3;spacingRight=3;rotatable=0;labelPosition=right;points=[];portConstraint=eastwest;" parent="zkfFHV4jXpPFQw0GAbJ--0" vertex="1">
          <mxGeometry y="104" width="160" height="8" as="geometry" />
        </mxCell>
        <mxCell id="zkfFHV4jXpPFQw0GAbJ--5" value="getDosage()&#xa;getFeedSchedule()" style="text;align=left;verticalAlign=top;spacingLeft=4;spacingRight=4;overflow=hidden;rotatable=0;points=[[0,0.5],[1,0.5]];portConstraint=eastwest;" parent="zkfFHV4jXpPFQw0GAbJ--0" vertex="1">
          <mxGeometry y="112" width="160" height="68" as="geometry" />
        </mxCell>
        <mxCell id="zkfFHV4jXpPFQw0GAbJ--6" value="Kemirgenler" style="swimlane;fontStyle=0;align=center;verticalAlign=top;childLayout=stackLayout;horizontal=1;startSize=26;horizontalStack=0;resizeParent=1;resizeLast=0;collapsible=1;marginBottom=0;rounded=0;shadow=0;strokeWidth=1;" parent="WIyWlLk6GJQsqaUBKTNV-1" vertex="1">
          <mxGeometry x="-20" y="360" width="160" height="138" as="geometry">
            <mxRectangle x="130" y="380" width="160" height="26" as="alternateBounds" />
          </mxGeometry>
        </mxCell>
        <mxCell id="zkfFHV4jXpPFQw0GAbJ--9" value="" style="line;html=1;strokeWidth=1;align=left;verticalAlign=middle;spacingTop=-1;spacingLeft=3;spacingRight=3;rotatable=0;labelPosition=right;points=[];portConstraint=eastwest;" parent="zkfFHV4jXpPFQw0GAbJ--6" vertex="1">
          <mxGeometry y="26" width="160" height="54" as="geometry" />
        </mxCell>
        <mxCell id="TgNwnyrPyJFlsaZ8HL2S-7" value="getDosage()&lt;br style=&quot;border-color: var(--border-color); padding: 0px; margin: 0px; text-align: left;&quot;&gt;&lt;span style=&quot;text-align: left;&quot;&gt;getFeedSchedule()&lt;/span&gt;" style="text;html=1;align=center;verticalAlign=middle;resizable=0;points=[];autosize=1;strokeColor=none;fillColor=none;" vertex="1" parent="zkfFHV4jXpPFQw0GAbJ--6">
          <mxGeometry y="80" width="160" height="40" as="geometry" />
        </mxCell>
        <mxCell id="zkfFHV4jXpPFQw0GAbJ--12" value="" style="endArrow=block;endSize=10;endFill=0;shadow=0;strokeWidth=1;rounded=0;edgeStyle=elbowEdgeStyle;elbow=vertical;" parent="WIyWlLk6GJQsqaUBKTNV-1" source="zkfFHV4jXpPFQw0GAbJ--6" target="zkfFHV4jXpPFQw0GAbJ--0" edge="1">
          <mxGeometry width="160" relative="1" as="geometry">
            <mxPoint x="200" y="203" as="sourcePoint" />
            <mxPoint x="200" y="203" as="targetPoint" />
          </mxGeometry>
        </mxCell>
        <mxCell id="zkfFHV4jXpPFQw0GAbJ--13" value="Kediler&#xa;" style="swimlane;fontStyle=0;align=center;verticalAlign=top;childLayout=stackLayout;horizontal=1;startSize=26;horizontalStack=0;resizeParent=1;resizeLast=0;collapsible=1;marginBottom=0;rounded=0;shadow=0;strokeWidth=1;" parent="WIyWlLk6GJQsqaUBKTNV-1" vertex="1">
          <mxGeometry x="710" y="359" width="160" height="154" as="geometry">
            <mxRectangle x="340" y="380" width="170" height="26" as="alternateBounds" />
          </mxGeometry>
        </mxCell>
        <mxCell id="zkfFHV4jXpPFQw0GAbJ--15" value="" style="line;html=1;strokeWidth=1;align=left;verticalAlign=middle;spacingTop=-1;spacingLeft=3;spacingRight=3;rotatable=0;labelPosition=right;points=[];portConstraint=eastwest;" parent="zkfFHV4jXpPFQw0GAbJ--13" vertex="1">
          <mxGeometry y="26" width="160" height="88" as="geometry" />
        </mxCell>
        <mxCell id="TgNwnyrPyJFlsaZ8HL2S-9" value="getDosage()&lt;br style=&quot;border-color: var(--border-color); padding: 0px; margin: 0px; text-align: left;&quot;&gt;&lt;span style=&quot;text-align: left;&quot;&gt;getFeedSchedule()&lt;/span&gt;" style="text;html=1;align=center;verticalAlign=middle;resizable=0;points=[];autosize=1;strokeColor=none;fillColor=none;" vertex="1" parent="zkfFHV4jXpPFQw0GAbJ--13">
          <mxGeometry y="114" width="160" height="40" as="geometry" />
        </mxCell>
        <mxCell id="zkfFHV4jXpPFQw0GAbJ--16" value="" style="endArrow=block;endSize=10;endFill=0;shadow=0;strokeWidth=1;rounded=0;edgeStyle=elbowEdgeStyle;elbow=vertical;" parent="WIyWlLk6GJQsqaUBKTNV-1" source="zkfFHV4jXpPFQw0GAbJ--13" target="zkfFHV4jXpPFQw0GAbJ--0" edge="1">
          <mxGeometry width="160" relative="1" as="geometry">
            <mxPoint x="210" y="373" as="sourcePoint" />
            <mxPoint x="310" y="271" as="targetPoint" />
          </mxGeometry>
        </mxCell>
        <mxCell id="TgNwnyrPyJFlsaZ8HL2S-0" value="Atlar" style="swimlane;fontStyle=0;align=center;verticalAlign=top;childLayout=stackLayout;horizontal=1;startSize=26;horizontalStack=0;resizeParent=1;resizeLast=0;collapsible=1;marginBottom=0;rounded=0;shadow=0;strokeWidth=1;" vertex="1" parent="WIyWlLk6GJQsqaUBKTNV-1">
          <mxGeometry x="350" y="360" width="160" height="140" as="geometry">
            <mxRectangle x="340" y="380" width="170" height="26" as="alternateBounds" />
          </mxGeometry>
        </mxCell>
        <mxCell id="TgNwnyrPyJFlsaZ8HL2S-2" value="" style="line;html=1;strokeWidth=1;align=left;verticalAlign=middle;spacingTop=-1;spacingLeft=3;spacingRight=3;rotatable=0;labelPosition=right;points=[];portConstraint=eastwest;" vertex="1" parent="TgNwnyrPyJFlsaZ8HL2S-0">
          <mxGeometry y="26" width="160" height="54" as="geometry" />
        </mxCell>
        <mxCell id="TgNwnyrPyJFlsaZ8HL2S-8" value="getDosage()&lt;br style=&quot;border-color: var(--border-color); padding: 0px; margin: 0px; text-align: left;&quot;&gt;&lt;span style=&quot;text-align: left;&quot;&gt;getFeedSchedule()&lt;/span&gt;" style="text;html=1;align=center;verticalAlign=middle;resizable=0;points=[];autosize=1;strokeColor=none;fillColor=none;" vertex="1" parent="TgNwnyrPyJFlsaZ8HL2S-0">
          <mxGeometry y="80" width="160" height="40" as="geometry" />
        </mxCell>
        <mxCell id="TgNwnyrPyJFlsaZ8HL2S-4" value="" style="endArrow=none;html=1;rounded=0;exitX=0.5;exitY=0;exitDx=0;exitDy=0;" edge="1" parent="WIyWlLk6GJQsqaUBKTNV-1" source="TgNwnyrPyJFlsaZ8HL2S-0">
          <mxGeometry width="50" height="50" relative="1" as="geometry">
            <mxPoint x="380" y="330" as="sourcePoint" />
            <mxPoint x="430" y="280" as="targetPoint" />
          </mxGeometry>
        </mxCell>
        <mxCell id="TgNwnyrPyJFlsaZ8HL2S-13" value="Sıçan" style="swimlane;fontStyle=0;align=center;verticalAlign=top;childLayout=stackLayout;horizontal=1;startSize=26;horizontalStack=0;resizeParent=1;resizeLast=0;collapsible=1;marginBottom=0;rounded=0;shadow=0;strokeWidth=1;" vertex="1" parent="WIyWlLk6GJQsqaUBKTNV-1">
          <mxGeometry x="-145.70999999999998" y="600" width="125.71" height="120" as="geometry">
            <mxRectangle x="340" y="380" width="170" height="26" as="alternateBounds" />
          </mxGeometry>
        </mxCell>
        <mxCell id="TgNwnyrPyJFlsaZ8HL2S-14" value="" style="line;html=1;strokeWidth=1;align=left;verticalAlign=middle;spacingTop=-1;spacingLeft=3;spacingRight=3;rotatable=0;labelPosition=right;points=[];portConstraint=eastwest;" vertex="1" parent="TgNwnyrPyJFlsaZ8HL2S-13">
          <mxGeometry y="26" width="125.71" height="54" as="geometry" />
        </mxCell>
        <mxCell id="TgNwnyrPyJFlsaZ8HL2S-15" value="getDosage()&lt;br style=&quot;border-color: var(--border-color); padding: 0px; margin: 0px; text-align: left;&quot;&gt;&lt;span style=&quot;text-align: left;&quot;&gt;getFeedSchedule()&lt;/span&gt;" style="text;html=1;align=center;verticalAlign=middle;resizable=0;points=[];autosize=1;strokeColor=none;fillColor=none;" vertex="1" parent="TgNwnyrPyJFlsaZ8HL2S-13">
          <mxGeometry y="80" width="125.71" height="40" as="geometry" />
        </mxCell>
        <mxCell id="TgNwnyrPyJFlsaZ8HL2S-16" value="" style="endArrow=block;endSize=10;endFill=0;shadow=0;strokeWidth=1;rounded=0;edgeStyle=elbowEdgeStyle;elbow=vertical;exitX=0.5;exitY=0;exitDx=0;exitDy=0;" edge="1" parent="WIyWlLk6GJQsqaUBKTNV-1" source="TgNwnyrPyJFlsaZ8HL2S-13">
          <mxGeometry width="160" relative="1" as="geometry">
            <mxPoint x="414" y="617" as="sourcePoint" />
            <mxPoint x="54" y="498" as="targetPoint" />
          </mxGeometry>
        </mxCell>
        <mxCell id="TgNwnyrPyJFlsaZ8HL2S-17" value="" style="endArrow=block;endSize=10;endFill=0;shadow=0;strokeWidth=1;rounded=0;edgeStyle=elbowEdgeStyle;elbow=vertical;exitX=0.5;exitY=0;exitDx=0;exitDy=0;" edge="1" parent="WIyWlLk6GJQsqaUBKTNV-1" source="TgNwnyrPyJFlsaZ8HL2S-18">
          <mxGeometry width="160" relative="1" as="geometry">
            <mxPoint x="166" y="589" as="sourcePoint" />
            <mxPoint x="53" y="499" as="targetPoint" />
            <Array as="points">
              <mxPoint x="96" y="550" />
            </Array>
          </mxGeometry>
        </mxCell>
        <mxCell id="TgNwnyrPyJFlsaZ8HL2S-18" value="Kunduz" style="swimlane;fontStyle=0;align=center;verticalAlign=top;childLayout=stackLayout;horizontal=1;startSize=26;horizontalStack=0;resizeParent=1;resizeLast=0;collapsible=1;marginBottom=0;rounded=0;shadow=0;strokeWidth=1;" vertex="1" parent="WIyWlLk6GJQsqaUBKTNV-1">
          <mxGeometry x="100.00000000000003" y="600" width="125.71" height="120" as="geometry">
            <mxRectangle x="340" y="380" width="170" height="26" as="alternateBounds" />
          </mxGeometry>
        </mxCell>
        <mxCell id="TgNwnyrPyJFlsaZ8HL2S-19" value="" style="line;html=1;strokeWidth=1;align=left;verticalAlign=middle;spacingTop=-1;spacingLeft=3;spacingRight=3;rotatable=0;labelPosition=right;points=[];portConstraint=eastwest;" vertex="1" parent="TgNwnyrPyJFlsaZ8HL2S-18">
          <mxGeometry y="26" width="125.71" height="54" as="geometry" />
        </mxCell>
        <mxCell id="TgNwnyrPyJFlsaZ8HL2S-20" value="getDosage()&lt;br style=&quot;border-color: var(--border-color); padding: 0px; margin: 0px; text-align: left;&quot;&gt;&lt;span style=&quot;text-align: left;&quot;&gt;getFeedSchedule()&lt;/span&gt;" style="text;html=1;align=center;verticalAlign=middle;resizable=0;points=[];autosize=1;strokeColor=none;fillColor=none;" vertex="1" parent="TgNwnyrPyJFlsaZ8HL2S-18">
          <mxGeometry y="80" width="125.71" height="40" as="geometry" />
        </mxCell>
        <mxCell id="TgNwnyrPyJFlsaZ8HL2S-25" value="" style="endArrow=none;html=1;rounded=0;exitX=0.586;exitY=-0.042;exitDx=0;exitDy=0;exitPerimeter=0;" edge="1" parent="WIyWlLk6GJQsqaUBKTNV-1">
          <mxGeometry width="50" height="50" relative="1" as="geometry">
            <mxPoint x="426.12606" y="720" as="sourcePoint" />
            <mxPoint x="428.17" y="545.04" as="targetPoint" />
          </mxGeometry>
        </mxCell>
        <mxCell id="TgNwnyrPyJFlsaZ8HL2S-26" value="" style="endArrow=block;endSize=10;endFill=0;shadow=0;strokeWidth=1;rounded=0;edgeStyle=elbowEdgeStyle;elbow=vertical;exitX=0.5;exitY=0;exitDx=0;exitDy=0;" edge="1" parent="WIyWlLk6GJQsqaUBKTNV-1">
          <mxGeometry width="160" relative="1" as="geometry">
            <mxPoint x="291" y="600" as="sourcePoint" />
            <mxPoint x="428" y="498" as="targetPoint" />
          </mxGeometry>
        </mxCell>
        <mxCell id="TgNwnyrPyJFlsaZ8HL2S-27" value="" style="endArrow=block;endSize=10;endFill=0;shadow=0;strokeWidth=1;rounded=0;edgeStyle=elbowEdgeStyle;elbow=vertical;exitX=0.5;exitY=0;exitDx=0;exitDy=0;" edge="1" parent="WIyWlLk6GJQsqaUBKTNV-1">
          <mxGeometry width="160" relative="1" as="geometry">
            <mxPoint x="537" y="600" as="sourcePoint" />
            <mxPoint x="427" y="499" as="targetPoint" />
            <Array as="points">
              <mxPoint x="470" y="550" />
            </Array>
          </mxGeometry>
        </mxCell>
        <mxCell id="TgNwnyrPyJFlsaZ8HL2S-28" value="" style="endArrow=block;endSize=10;endFill=0;shadow=0;strokeWidth=1;rounded=0;edgeStyle=elbowEdgeStyle;elbow=vertical;exitX=0.5;exitY=0;exitDx=0;exitDy=0;" edge="1" parent="WIyWlLk6GJQsqaUBKTNV-1">
          <mxGeometry width="160" relative="1" as="geometry">
            <mxPoint x="660" y="615" as="sourcePoint" />
            <mxPoint x="797" y="513" as="targetPoint" />
          </mxGeometry>
        </mxCell>
        <mxCell id="TgNwnyrPyJFlsaZ8HL2S-29" value="" style="endArrow=block;endSize=10;endFill=0;shadow=0;strokeWidth=1;rounded=0;edgeStyle=elbowEdgeStyle;elbow=vertical;exitX=0.5;exitY=0;exitDx=0;exitDy=0;" edge="1" parent="WIyWlLk6GJQsqaUBKTNV-1">
          <mxGeometry width="160" relative="1" as="geometry">
            <mxPoint x="906" y="615" as="sourcePoint" />
            <mxPoint x="796" y="514" as="targetPoint" />
            <Array as="points">
              <mxPoint x="839" y="565" />
            </Array>
          </mxGeometry>
        </mxCell>
        <mxCell id="TgNwnyrPyJFlsaZ8HL2S-30" value="Eşek" style="swimlane;fontStyle=0;align=center;verticalAlign=top;childLayout=stackLayout;horizontal=1;startSize=26;horizontalStack=0;resizeParent=1;resizeLast=0;collapsible=1;marginBottom=0;rounded=0;shadow=0;strokeWidth=1;" vertex="1" parent="WIyWlLk6GJQsqaUBKTNV-1">
          <mxGeometry x="244.29000000000002" y="590" width="125.71" height="120" as="geometry">
            <mxRectangle x="340" y="380" width="170" height="26" as="alternateBounds" />
          </mxGeometry>
        </mxCell>
        <mxCell id="TgNwnyrPyJFlsaZ8HL2S-31" value="" style="line;html=1;strokeWidth=1;align=left;verticalAlign=middle;spacingTop=-1;spacingLeft=3;spacingRight=3;rotatable=0;labelPosition=right;points=[];portConstraint=eastwest;" vertex="1" parent="TgNwnyrPyJFlsaZ8HL2S-30">
          <mxGeometry y="26" width="125.71" height="54" as="geometry" />
        </mxCell>
        <mxCell id="TgNwnyrPyJFlsaZ8HL2S-32" value="getDosage()&lt;br style=&quot;border-color: var(--border-color); padding: 0px; margin: 0px; text-align: left;&quot;&gt;&lt;span style=&quot;text-align: left;&quot;&gt;getFeedSchedule()&lt;/span&gt;" style="text;html=1;align=center;verticalAlign=middle;resizable=0;points=[];autosize=1;strokeColor=none;fillColor=none;" vertex="1" parent="TgNwnyrPyJFlsaZ8HL2S-30">
          <mxGeometry y="80" width="125.71" height="40" as="geometry" />
        </mxCell>
        <mxCell id="TgNwnyrPyJFlsaZ8HL2S-33" value="Zebra" style="swimlane;fontStyle=0;align=center;verticalAlign=top;childLayout=stackLayout;horizontal=1;startSize=26;horizontalStack=0;resizeParent=1;resizeLast=0;collapsible=1;marginBottom=0;rounded=0;shadow=0;strokeWidth=1;" vertex="1" parent="WIyWlLk6GJQsqaUBKTNV-1">
          <mxGeometry x="490" y="590" width="125.71" height="120" as="geometry">
            <mxRectangle x="340" y="380" width="170" height="26" as="alternateBounds" />
          </mxGeometry>
        </mxCell>
        <mxCell id="TgNwnyrPyJFlsaZ8HL2S-34" value="" style="line;html=1;strokeWidth=1;align=left;verticalAlign=middle;spacingTop=-1;spacingLeft=3;spacingRight=3;rotatable=0;labelPosition=right;points=[];portConstraint=eastwest;" vertex="1" parent="TgNwnyrPyJFlsaZ8HL2S-33">
          <mxGeometry y="26" width="125.71" height="54" as="geometry" />
        </mxCell>
        <mxCell id="TgNwnyrPyJFlsaZ8HL2S-35" value="getDosage()&lt;br style=&quot;border-color: var(--border-color); padding: 0px; margin: 0px; text-align: left;&quot;&gt;&lt;span style=&quot;text-align: left;&quot;&gt;getFeedSchedule()&lt;/span&gt;" style="text;html=1;align=center;verticalAlign=middle;resizable=0;points=[];autosize=1;strokeColor=none;fillColor=none;" vertex="1" parent="TgNwnyrPyJFlsaZ8HL2S-33">
          <mxGeometry y="80" width="125.71" height="40" as="geometry" />
        </mxCell>
        <mxCell id="TgNwnyrPyJFlsaZ8HL2S-36" value="At" style="swimlane;fontStyle=0;align=center;verticalAlign=top;childLayout=stackLayout;horizontal=1;startSize=26;horizontalStack=0;resizeParent=1;resizeLast=0;collapsible=1;marginBottom=0;rounded=0;shadow=0;strokeWidth=1;" vertex="1" parent="WIyWlLk6GJQsqaUBKTNV-1">
          <mxGeometry x="364.29" y="720" width="125.71" height="120" as="geometry">
            <mxRectangle x="340" y="380" width="170" height="26" as="alternateBounds" />
          </mxGeometry>
        </mxCell>
        <mxCell id="TgNwnyrPyJFlsaZ8HL2S-37" value="" style="line;html=1;strokeWidth=1;align=left;verticalAlign=middle;spacingTop=-1;spacingLeft=3;spacingRight=3;rotatable=0;labelPosition=right;points=[];portConstraint=eastwest;" vertex="1" parent="TgNwnyrPyJFlsaZ8HL2S-36">
          <mxGeometry y="26" width="125.71" height="54" as="geometry" />
        </mxCell>
        <mxCell id="TgNwnyrPyJFlsaZ8HL2S-38" value="getDosage()&lt;br style=&quot;border-color: var(--border-color); padding: 0px; margin: 0px; text-align: left;&quot;&gt;&lt;span style=&quot;text-align: left;&quot;&gt;getFeedSchedule()&lt;/span&gt;" style="text;html=1;align=center;verticalAlign=middle;resizable=0;points=[];autosize=1;strokeColor=none;fillColor=none;" vertex="1" parent="TgNwnyrPyJFlsaZ8HL2S-36">
          <mxGeometry y="80" width="125.71" height="40" as="geometry" />
        </mxCell>
        <mxCell id="TgNwnyrPyJFlsaZ8HL2S-39" value="Kaplan" style="swimlane;fontStyle=0;align=center;verticalAlign=top;childLayout=stackLayout;horizontal=1;startSize=26;horizontalStack=0;resizeParent=1;resizeLast=0;collapsible=1;marginBottom=0;rounded=0;shadow=0;strokeWidth=1;" vertex="1" parent="WIyWlLk6GJQsqaUBKTNV-1">
          <mxGeometry x="630" y="600" width="125.71" height="120" as="geometry">
            <mxRectangle x="340" y="380" width="170" height="26" as="alternateBounds" />
          </mxGeometry>
        </mxCell>
        <mxCell id="TgNwnyrPyJFlsaZ8HL2S-40" value="" style="line;html=1;strokeWidth=1;align=left;verticalAlign=middle;spacingTop=-1;spacingLeft=3;spacingRight=3;rotatable=0;labelPosition=right;points=[];portConstraint=eastwest;" vertex="1" parent="TgNwnyrPyJFlsaZ8HL2S-39">
          <mxGeometry y="26" width="125.71" height="54" as="geometry" />
        </mxCell>
        <mxCell id="TgNwnyrPyJFlsaZ8HL2S-41" value="getDosage()&lt;br style=&quot;border-color: var(--border-color); padding: 0px; margin: 0px; text-align: left;&quot;&gt;&lt;span style=&quot;text-align: left;&quot;&gt;getFeedSchedule()&lt;/span&gt;" style="text;html=1;align=center;verticalAlign=middle;resizable=0;points=[];autosize=1;strokeColor=none;fillColor=none;" vertex="1" parent="TgNwnyrPyJFlsaZ8HL2S-39">
          <mxGeometry y="80" width="125.71" height="40" as="geometry" />
        </mxCell>
        <mxCell id="TgNwnyrPyJFlsaZ8HL2S-42" value="Aslan" style="swimlane;fontStyle=0;align=center;verticalAlign=top;childLayout=stackLayout;horizontal=1;startSize=26;horizontalStack=0;resizeParent=1;resizeLast=0;collapsible=1;marginBottom=0;rounded=0;shadow=0;strokeWidth=1;" vertex="1" parent="WIyWlLk6GJQsqaUBKTNV-1">
          <mxGeometry x="850" y="600" width="125.71" height="120" as="geometry">
            <mxRectangle x="340" y="380" width="170" height="26" as="alternateBounds" />
          </mxGeometry>
        </mxCell>
        <mxCell id="TgNwnyrPyJFlsaZ8HL2S-43" value="" style="line;html=1;strokeWidth=1;align=left;verticalAlign=middle;spacingTop=-1;spacingLeft=3;spacingRight=3;rotatable=0;labelPosition=right;points=[];portConstraint=eastwest;" vertex="1" parent="TgNwnyrPyJFlsaZ8HL2S-42">
          <mxGeometry y="26" width="125.71" height="54" as="geometry" />
        </mxCell>
        <mxCell id="TgNwnyrPyJFlsaZ8HL2S-44" value="getDosage()&lt;br style=&quot;border-color: var(--border-color); padding: 0px; margin: 0px; text-align: left;&quot;&gt;&lt;span style=&quot;text-align: left;&quot;&gt;getFeedSchedule()&lt;/span&gt;" style="text;html=1;align=center;verticalAlign=middle;resizable=0;points=[];autosize=1;strokeColor=none;fillColor=none;" vertex="1" parent="TgNwnyrPyJFlsaZ8HL2S-42">
          <mxGeometry y="80" width="125.71" height="40" as="geometry" />
        </mxCell>
      </root>
    </mxGraphModel>
  </diagram>
</mxfile>
